<svg width="42" height="45" viewBox="0 0 42 45" fill="none" xmlns="http://www.w3.org/2000/svg">
<path d="M38.1159 0.695557H3.33333L0.434784 15.1883V28.2318H41.0145V15.1883L38.1159 0.695557ZM37.029 15.1883H26.5217C26.5217 16.7258 25.911 18.2003 24.8238 19.2875C23.7366 20.3746 22.2621 20.9854 20.7246 20.9854C19.1872 20.9854 17.7126 20.3746 16.6255 19.2875C15.5383 18.2003 14.9275 16.7258 14.9275 15.1883H4.42029L6.41304 4.4999H35.0362L37.029 15.1883ZM26.5217 31.1303C26.5217 32.6678 25.911 34.1423 24.8238 35.2295C23.7366 36.3167 22.2621 36.9274 20.7246 36.9274C19.1872 36.9274 17.7126 36.3167 16.6255 35.2295C15.5383 34.1423 14.9275 32.6678 14.9275 31.1303H0.434784V44.1738H41.0145V31.1303H26.5217Z" fill="black"/>
</svg>
