<svg width="26" height="26" viewBox="0 0 26 26" fill="none" xmlns="http://www.w3.org/2000/svg">
<path d="M13 26C20.1794 26 26 20.1794 26 13C26 5.82063 20.1794 0 13 0C5.82063 0 0 5.82063 0 13C0 20.1794 5.82063 26 13 26ZM10.7931 7.70687C10.6964 7.61494 10.619 7.50456 10.5655 7.38225C10.5121 7.25994 10.4837 7.12816 10.482 6.9947C10.4803 6.86123 10.5053 6.72878 10.5556 6.60513C10.6059 6.48149 10.6804 6.36917 10.7748 6.27479C10.8692 6.18041 10.9815 6.10588 11.1051 6.05559C11.2288 6.0053 11.3612 5.98027 11.4947 5.98198C11.6282 5.98369 11.7599 6.0121 11.8822 6.06554C12.0046 6.11897 12.1149 6.19636 12.2069 6.29313L18.2069 12.2931C18.3943 12.4806 18.4995 12.7349 18.4995 13C18.4995 13.2651 18.3943 13.5194 18.2069 13.7069L12.2069 19.7069C12.0178 19.8865 11.7661 19.9852 11.5053 19.9818C11.2445 19.9785 10.9954 19.8734 10.811 19.689C10.6266 19.5046 10.5215 19.2555 10.5182 18.9947C10.5148 18.7339 10.6135 18.4822 10.7931 18.2931L16.0856 13L10.7931 7.70687Z" fill="#5BA190"/>
</svg>
