<svg width="26" height="26" viewBox="0 0 26 26" fill="none" xmlns="http://www.w3.org/2000/svg">
<path d="M13 26C5.82062 26 0 20.1794 0 13C0 5.82063 5.82062 0 13 0C20.1794 0 26 5.82063 26 13C26 20.1794 20.1794 26 13 26ZM15.2069 7.70687C15.3036 7.61494 15.381 7.50456 15.4345 7.38225C15.4879 7.25994 15.5163 7.12816 15.518 6.9947C15.5197 6.86123 15.4947 6.72878 15.4444 6.60513C15.3941 6.48149 15.3196 6.36917 15.2252 6.27479C15.1308 6.18041 15.0185 6.10588 14.8949 6.05559C14.7712 6.0053 14.6388 5.98027 14.5053 5.98198C14.3718 5.98369 14.2401 6.0121 14.1178 6.06554C13.9954 6.11897 13.8851 6.19636 13.7931 6.29313L7.79313 12.2931C7.60573 12.4806 7.50046 12.7349 7.50046 13C7.50046 13.2651 7.60573 13.5194 7.79313 13.7069L13.7931 19.7069C13.9822 19.8865 14.2339 19.9852 14.4947 19.9818C14.7555 19.9785 15.0046 19.8734 15.189 19.689C15.3734 19.5046 15.4785 19.2555 15.4818 18.9947C15.4852 18.7339 15.3865 18.4822 15.2069 18.2931L9.91438 13L15.2069 7.70687Z" fill="#5BA190"/>
</svg>
